<svg viewBox="0 0 500 500" xmlns="http://www.w3.org/2000/svg" xmlns:bx="https://boxy-svg.com">
  <defs>
    <bx:grid x="0" y="0" width="55.422" height="55.422"/>
  </defs>
  <g style="" transform="matrix(0.963488, 0, 0, 0.963488, 19.137709, 16.188705)">
    <g transform="matrix(0.942973, 0, 0, 0.942973, 16.962601, 13.738991)" style="">
      <g style="" transform="matrix(0.680814, 0, 0, 0.680814, 68.291382, 97.700836)">
        <polygon style="fill: #A9F7EC;" points="469.53 104.405 245.53 -7.595 21.53 104.405 21.53 392.405 245.53 504.405 469.53 392.405"/>
        <polygon style="fill: #6de6d0;" points="245.53 219.738 21.53 107.738 21.53 395.738 245.53 507.738 469.53 395.738 469.53 107.738"/>
        <polygon style="fill: #4bcbb9;" points="245.53 219.738 245.53 507.738 469.53 395.738 469.53 107.738"/>
      </g>
      <g style="" transform="matrix(0.179198, 0, 0, 0.179198, 192.971161, 42.081078)">
        <polygon style="fill: #A9F7EC;" points="469.53 104.405 245.53 -7.595 21.53 104.405 21.53 392.405 245.53 504.405 469.53 392.405"/>
        <polygon style="fill: #6de6d0;" points="245.53 219.738 21.53 107.738 21.53 395.738 245.53 507.738 469.53 395.738 469.53 107.738"/>
        <polygon style="fill: #4bcbb9;" points="245.53 219.738 245.53 507.738 469.53 395.738 469.53 107.738"/>
      </g>
      <g style="" transform="matrix(0.179198, 0, 0, 0.179198, 79.127167, 102.448242)">
        <polygon style="fill: #A9F7EC;" points="469.53 104.405 245.53 -7.595 21.53 104.405 21.53 392.405 245.53 504.405 469.53 392.405"/>
        <polygon style="fill: #6de6d0;" points="245.53 219.738 21.53 107.738 21.53 395.738 245.53 507.738 469.53 395.738 469.53 107.738"/>
        <polygon style="fill: #4bcbb9;" points="245.53 219.738 245.53 507.738 469.53 395.738 469.53 107.738"/>
      </g>
      <g style="" transform="matrix(0.179198, 0, 0, 0.179198, 303.815155, 100.923294)">
        <polygon style="fill: #A9F7EC;" points="469.53 104.405 245.53 -7.595 21.53 104.405 21.53 392.405 245.53 504.405 469.53 392.405"/>
        <polygon style="fill: #6de6d0;" points="245.53 219.738 21.53 107.738 21.53 395.738 245.53 507.738 469.53 395.738 469.53 107.738"/>
        <polygon style="fill: #4bcbb9;" points="245.53 219.738 245.53 507.738 469.53 395.738 469.53 107.738"/>
      </g>
      <g style="" transform="matrix(0.181648, 0, 0, 0.181648, 190.918411, 155.103485)">
        <polygon style="fill: #A9F7EC;" points="469.53 104.405 245.53 -7.595 21.53 104.405 21.53 392.405 245.53 504.405 469.53 392.405"/>
        <polygon style="fill: #6de6d0;" points="245.53 219.738 21.53 107.738 21.53 395.738 245.53 507.738 469.53 395.738 469.53 107.738"/>
        <polygon style="fill: #4bcbb9;" points="245.53 219.738 245.53 507.738 469.53 395.738 469.53 107.738"/>
      </g>
    </g>
  </g>
</svg>
